<svg width="136" height="151" viewBox="0 0 136 151" fill="none" xmlns="http://www.w3.org/2000/svg">
<path d="M3.68017 125.61C1.15145 125.61 -0.000244141 126.837 -0.000244141 128.99C-0.000244141 132.746 3.45484 137.979 10.2649 141.834C21.6066 148.244 41.0852 150.096 67.9998 150.096C94.9145 150.096 114.393 148.269 125.735 141.834C132.545 138.004 136 132.746 136 128.99C136 126.862 134.873 125.635 132.345 125.635H3.68017V125.61Z" fill="#F58233"/>
<path d="M132.345 42.2872C134.873 42.2872 136 40.9853 136 38.6319C136.025 24.6613 114.593 0 67.9998 0C21.0057 0 -0.000244141 24.6613 -0.000244141 38.6319C-0.000244141 40.9853 1.12641 42.2872 3.65514 42.2872H132.345Z" fill="#F58233"/>
<path d="M69.477 86.8031V113.893C69.477 117.548 67.1236 120.478 62.8923 120.478C58.9866 120.478 56.583 117.548 56.583 113.893V104.104C56.583 103.428 56.4078 103.077 55.8319 103.077C55.6567 103.077 55.3062 103.202 55.0308 103.828L49.3724 115.27C47.2443 119.626 44.9159 120.478 42.4372 120.478C38.2561 120.478 35.8525 117.498 35.8525 113.718V86.6279C35.8525 82.9725 38.0808 80.0432 42.1618 80.0432C46.393 80.0432 48.7465 82.9725 48.7465 86.6279V96.3171C48.7465 96.943 48.9718 97.2935 49.3224 97.2935C49.5477 97.2935 49.8982 97.2435 50.2487 96.6176L55.8069 85.2759C57.9851 80.8193 60.3386 80.0682 62.7922 80.0682C67.0735 80.0432 69.477 83.0726 69.477 86.8031ZM99.6464 80.1683C95.5153 80.1683 93.237 83.0977 93.237 86.753V93.513C93.237 94.5896 92.4859 95.3407 91.4093 95.3407H88.2046C87.128 95.3407 86.3769 94.5896 86.3769 93.513L86.427 86.753C86.427 83.0977 84.1486 80.1683 80.0175 80.1683C75.8865 80.1683 73.6081 83.0977 73.6081 86.753V114.018C73.6081 117.674 75.8865 120.603 79.9675 120.603C84.1486 120.603 86.427 117.674 86.427 114.018L86.3769 106.858C86.3769 105.781 87.128 105.03 88.2046 105.03H91.4093C92.4859 105.03 93.237 105.781 93.237 106.858V114.018C93.237 117.674 95.5153 120.603 99.5963 120.603C103.777 120.603 106.056 117.674 106.056 114.018V86.753C106.056 83.0726 103.778 80.1683 99.6464 80.1683ZM129.54 80.2184H117.848C112.691 80.2184 110.287 83.0225 110.287 86.8532V113.943C110.287 117.598 112.741 120.528 116.872 120.528C121.053 120.528 123.231 117.598 123.231 113.943V94.189C123.231 92.9371 123.682 92.3613 124.833 92.3613H129.54C133.596 92.3613 136 90.0078 136 86.3024C136.025 82.7471 133.672 80.2184 129.54 80.2184ZM24.4107 100.273C24.2354 99.8223 24.0101 99.4718 24.0101 99.1212C24.0101 98.5955 24.2354 98.3201 24.636 97.9195C26.2885 96.267 30.1942 92.4865 31.4961 89.5071C31.9468 88.5307 32.4225 87.2788 32.4225 86.0019C32.4225 82.5719 29.4431 80.1683 26.0631 80.1683C24.0101 80.1683 21.6066 80.9695 19.879 84.5248C18.4018 87.6794 16.1485 91.0594 14.4961 92.9371C14.0955 93.4629 13.9202 93.5631 13.5197 93.5631C13.069 93.5631 12.8937 93.1124 12.8937 92.7118V86.753C12.8937 83.0977 10.4902 80.2184 6.4843 80.2184C2.35322 80.2184 -0.000244141 83.0726 -0.000244141 86.753V114.018C-0.000244141 117.674 2.35322 120.603 6.45926 120.603C10.4652 120.603 12.8687 117.674 12.8687 114.068V106.457C12.8687 106.006 13.044 105.656 13.4946 105.656C14.0705 105.656 14.2958 106.006 14.4711 106.582C15.6728 110.012 17.9011 115.22 20.4799 117.874C22.0322 119.526 24.0351 120.628 26.2133 120.628C29.6434 120.628 33.0734 117.949 33.0734 114.319C33.0734 111.965 31.6463 110.413 30.4946 109.161C28.0661 106.332 25.312 102.777 24.4107 100.273ZM42.0366 47.2699C39.6081 47.1698 37.9807 48.4967 37.1544 51.0505C36.4784 53.1035 36.203 54.2802 35.4019 56.4334C35.2516 56.859 35.1265 57.0844 34.9011 57.0844C34.6758 57.0844 34.5506 56.9342 34.4004 56.4585C33.5491 54.105 33.0484 52.5527 32.0469 50.3495C30.9453 47.8959 29.2929 47.2699 27.6655 47.2699C25.1368 47.2699 23.0337 49.0726 23.0337 51.5012C23.0337 52.5277 23.284 53.3038 23.6846 54.105C26.4637 59.3627 28.3915 63.0932 29.4681 65.0962C30.1191 66.323 29.6935 67.8001 27.2148 68.2258C25.3871 68.5512 24.1854 69.9533 24.1854 71.806C24.1854 74.485 26.0381 75.9872 29.0425 75.9872C32.2973 75.9872 34.0248 74.6602 35.8275 72.8576C39.7833 68.9268 42.8128 60.8399 45.8923 53.454C47.2693 50.1992 45.2664 47.4201 42.0366 47.2699ZM70.4034 56.834C70.4034 62.2169 67.0985 66.999 59.2369 66.999H58.3106C57.4844 66.999 57.1589 67.4496 57.1589 67.9754V71.2803C57.1589 73.8841 55.6567 75.9622 52.6773 75.9622C49.748 75.9622 48.1206 73.8841 48.1206 71.2803V52.0269C48.1206 49.3229 49.8732 47.345 53.5035 47.345H59.9881C66.6479 47.345 70.4034 51.7515 70.4034 56.834ZM61.5403 57.1344C61.5403 56.0328 60.9394 54.5556 58.6861 54.5556H57.8599C57.0337 54.5556 56.7082 55.0063 56.7082 55.5321V58.7618C56.7082 59.3377 57.0337 59.7884 57.8599 59.7884H58.6861C60.9394 59.7884 61.5403 58.3863 61.5403 57.1344ZM86.0514 47.345H77.7642C74.1088 47.345 72.4063 49.348 72.4063 52.052V71.2803C72.4063 73.8841 74.1589 75.9622 77.0882 75.9622C80.0676 75.9622 81.5948 73.8841 81.5948 71.2803V57.2596C81.5948 56.3583 81.9203 55.9577 82.7215 55.9577H86.0514C88.9306 55.9577 90.6332 54.2802 90.6332 51.6514C90.6332 49.1227 88.9807 47.345 86.0514 47.345ZM22.2325 66.348C22.2325 71.9563 18.477 75.9622 11.7671 75.9622H5.40772C1.75234 75.9622 -0.000244141 73.9592 -0.000244141 71.2552V52.077C-0.000244141 49.348 1.7273 47.345 5.40772 47.345H16.1736C18.7023 47.345 20.7803 48.8222 20.7803 51.3509C20.7803 54.0048 18.7023 55.4319 16.1736 55.4319H9.83924C9.01302 55.4319 8.68754 55.8325 8.68754 56.4084V56.7839C8.68754 57.3097 9.01302 57.7604 9.83924 57.7604H11.016C18.9276 57.7604 22.2325 60.8399 22.2325 66.348ZM13.4445 66.5483C13.4445 65.4467 12.8437 63.9695 10.5903 63.9695H9.76413C8.93791 63.9695 8.61243 64.4202 8.61243 64.9459V68.1757C8.61243 68.7515 8.93791 69.2022 9.76413 69.2022H10.5903C12.8437 69.2022 13.4445 67.8252 13.4445 66.5483ZM102.3 55.4319H106.481C109.01 55.4319 111.113 54.0048 111.113 51.3509C111.113 48.8222 109.035 47.345 106.481 47.345H97.7186C94.0382 47.345 92.3106 49.348 92.3106 52.077V71.2052C92.3106 73.9342 94.0382 75.9371 97.7186 75.9371H106.481C109.01 75.9371 111.113 74.4599 111.113 71.8811C111.113 69.2523 109.035 67.8252 106.481 67.8252H102.3C101.474 67.8252 101.149 67.3745 101.149 66.8487V65.9975C101.149 65.4717 101.474 65.0211 102.3 65.0211H105.53C107.708 65.0211 109.486 63.7442 109.486 61.5409C109.486 59.3377 107.683 58.1109 105.53 58.1109H102.3C101.474 58.1109 101.149 57.6602 101.149 57.1344V56.4084C101.174 55.8325 101.499 55.4319 102.3 55.4319ZM135.975 56.834C135.975 62.2169 132.67 66.999 124.808 66.999H123.882C123.056 66.999 122.73 67.4496 122.73 67.9754V71.2803C122.73 73.8841 121.228 75.9622 118.249 75.9622C115.319 75.9622 113.692 73.8841 113.692 71.2803V52.0269C113.692 49.3229 115.445 47.345 119.075 47.345H125.56C132.244 47.345 135.975 51.7515 135.975 56.834ZM127.137 57.1344C127.137 56.0328 126.536 54.5556 124.283 54.5556H123.456C122.63 54.5556 122.305 55.0063 122.305 55.5321V58.7618C122.305 59.3377 122.63 59.7884 123.456 59.7884H124.283C126.536 59.7884 127.137 58.3863 127.137 57.1344ZM134.222 145.89C134.222 147.142 133.321 148.068 132.069 148.068C130.817 148.068 129.916 147.142 129.916 145.89C129.916 144.713 130.817 143.737 132.069 143.737C133.296 143.737 134.222 144.713 134.222 145.89ZM133.747 145.89C133.747 144.813 132.895 144.163 132.069 144.163C131.243 144.163 130.392 144.788 130.392 145.89C130.392 147.017 131.243 147.618 132.069 147.618C132.895 147.618 133.747 147.017 133.747 145.89ZM132.82 146.666C132.87 146.716 132.895 146.766 132.895 146.816C132.895 146.942 132.795 147.042 132.67 147.042C132.595 147.042 132.52 146.992 132.47 146.942L131.819 146.191H131.744V146.816C131.744 146.942 131.644 147.042 131.518 147.042C131.393 147.042 131.293 146.942 131.293 146.816V144.964C131.293 144.839 131.393 144.738 131.518 144.738H132.144C132.62 144.738 132.97 145.039 132.97 145.439C132.97 145.765 132.77 146.065 132.345 146.14L132.82 146.666ZM132.094 145.765C132.37 145.765 132.495 145.64 132.495 145.464C132.495 145.264 132.37 145.164 132.119 145.164H131.744V145.765H132.094Z" fill="#EE3124"/>
</svg>
